<svg width="101" height="101" viewBox="0 0 101 101" fill="none" xmlns="http://www.w3.org/2000/svg">
<path d="M11.3848 93.9531C11.667 93.9531 11.9648 93.9217 12.2469 93.8747C24.5356 91.743 37.1847 90.6301 50.0847 90.6301C62.9846 90.6301 75.6024 91.743 87.8911 93.8747C88.2046 93.9217 88.5024 93.9531 88.8159 93.9531C91.7783 93.9531 94.1765 91.5549 94.1765 88.5925V13.152C94.1765 8.98267 90.3519 5.87916 86.2453 6.55315C74.4739 8.49677 62.4047 9.5156 50.0847 9.5156C37.7647 9.5156 25.9619 8.52812 14.3159 6.61585C10.2092 5.94186 6.40039 9.06104 6.40039 13.2147V88.9686C6.40039 91.7273 8.64182 93.9531 11.3848 93.9531Z" fill="#04E1CB"/>
<path d="M6.40039 29.9395V66.5389L15.2093 58.3099C11.3691 51.2565 8.81423 42.6356 6.40039 29.9395Z" fill="#06A59A"/>
<path d="M27.2472 73.4196C24.3631 70.6923 21.9023 68.059 19.7706 65.3003L6.40039 77.7614V88.9685C6.40039 91.7272 8.64182 93.9529 11.3848 93.9529C11.667 93.9529 11.9648 93.9216 12.2469 93.8745C24.5356 91.7428 37.1847 90.63 50.0847 90.63C61.3702 90.63 72.4519 91.4764 83.2828 93.1222C61.621 88.0437 40.6017 86.0374 27.2472 73.4039V73.4196Z" fill="#06A59A"/>
<path d="M76.4021 30.8954C76.214 30.3311 75.9005 29.8295 75.5086 29.422C75.493 29.4063 75.4773 29.3907 75.4616 29.3593C75.4616 29.3593 75.4616 29.3593 75.4616 29.3436C75.4616 29.3436 75.4303 29.3123 75.4303 29.2966C75.4303 29.2966 75.3989 29.2653 75.3832 29.2496C75.007 28.8891 74.5838 28.6069 74.0823 28.4189H74.0509C74.0509 28.4189 74.0196 28.4189 74.0039 28.4032C73.5337 28.2308 73.0321 28.1367 72.5148 28.1367C72.4835 28.1367 72.4521 28.1367 72.4208 28.1367C72.217 28.1367 72.0289 28.1681 71.8408 28.1994L70.9317 28.3405C60.8688 29.9393 53.7057 30.7543 43.1412 30.7543C40.8684 30.7543 39.0345 32.5882 39.0345 34.861C39.0345 37.1338 40.8684 38.9677 43.1412 38.9677C49.9282 38.9677 55.3985 38.6385 60.9785 38.0272L41.323 57.6984L31.9027 48.2312C30.3666 46.6951 27.9058 46.6167 26.2756 48.0431L26.1973 48.1058L15.288 58.2941L6.479 66.5231V77.7302L19.8492 65.2691L28.8933 56.8364L38.4389 66.4134C39.2069 67.1814 40.2571 67.6203 41.3543 67.6203C42.4515 67.6203 43.486 67.1814 44.2697 66.4134L66.8251 43.8424C66.1981 49.4067 65.8846 54.8928 65.8846 61.664C65.8846 63.9368 67.7185 65.7707 69.9913 65.7707C72.264 65.7707 74.0979 63.9368 74.0979 61.664C74.0979 51.0839 74.913 43.9364 76.5118 33.8578L76.6528 32.9487C76.6999 32.7293 76.7155 32.4942 76.7155 32.2591C76.7155 32.2591 76.7155 32.2277 76.7155 32.212C76.7155 32.1964 76.7155 32.1807 76.7155 32.165C76.7155 31.7105 76.6372 31.2716 76.4961 30.864L76.4021 30.8954Z" fill="#024D4C"/>
<path d="M85.3833 13.9044C86.3081 13.7633 87.0605 14.1551 87.374 14.7351C87.6247 15.1583 87.7501 15.7226 87.6247 16.3025C87.0448 19.0769 86.5902 22.102 86.3081 25.2839C86.1984 26.5535 84.8347 27.2902 83.9413 26.3654C83.3613 25.7541 82.8911 25.0645 82.5306 24.3121C81.7782 22.8857 81.3394 21.9296 79.7406 21.0048C78.471 20.2681 76.3392 20.1427 74.7718 20.0487C74.3643 20.0487 73.9724 20.0017 73.5806 19.9703C73.5179 19.9703 73.4709 19.9703 73.4082 19.9546C71.2451 19.7195 69.3015 19.1239 67.7497 18.2461C66.245 17.3997 67.0757 15.5972 68.7999 15.5345C72.0758 15.4091 75.5399 15.1426 79.1293 14.7351C81.2767 14.5 83.3613 14.2022 85.3833 13.8887V13.9044Z" fill="white"/>
</svg>
