<svg width="101" height="101" viewBox="0 0 101 101" fill="none" xmlns="http://www.w3.org/2000/svg">
<g clip-path="url(#clip0_2432_6128)">
<path d="M24.8485 61.8718C24.8485 66.9502 20.6948 71.0882 15.632 71.0882C10.5692 71.0882 6.41553 66.9346 6.41553 61.8718C6.41553 56.809 10.5692 52.6553 15.632 52.6553H24.8485V61.8718Z" fill="#E3066A"/>
<path d="M29.4888 61.8718C29.4888 56.7933 33.6425 52.6553 38.7053 52.6553C43.7681 52.6553 47.9217 56.809 47.9217 61.8718V84.96C47.9217 90.0385 43.7681 94.1765 38.7053 94.1765C33.6425 94.1765 29.4888 90.0228 29.4888 84.96V61.8718Z" fill="#E3066A"/>
<path d="M38.7053 24.849C33.6268 24.849 29.4888 20.6954 29.4888 15.6326C29.4888 10.5698 33.6268 6.40039 38.7053 6.40039C43.7837 6.40039 47.9217 10.5541 47.9217 15.6169V24.8334H38.7053V24.849Z" fill="#1AB9FF"/>
<path d="M38.7051 29.4888C43.7836 29.4888 47.9216 33.6425 47.9216 38.7053C47.9216 43.7681 43.7679 47.9217 38.7051 47.9217H15.6169C10.5384 47.9217 6.40039 43.7681 6.40039 38.7053C6.40039 33.6425 10.5541 29.4888 15.6169 29.4888H38.7051Z" fill="#1AB9FF"/>
<path d="M75.7275 38.7053C75.7275 33.6268 79.8812 29.4888 84.944 29.4888C90.0068 29.4888 94.1605 33.6425 94.1605 38.7053C94.1605 43.7681 90.0068 47.9217 84.944 47.9217H75.7275V38.7053Z" fill="#41B658"/>
<path d="M71.0878 38.7051C71.0878 43.7836 66.9341 47.9216 61.8713 47.9216C56.8085 47.9216 52.6548 43.7679 52.6548 38.7051V15.6169C52.6548 10.5384 56.8085 6.40039 61.8713 6.40039C66.9341 6.40039 71.0878 10.5541 71.0878 15.6169V38.7051Z" fill="#41B658"/>
<path d="M61.8713 75.728C66.9497 75.728 71.0878 79.8817 71.0878 84.9445C71.0878 90.0073 66.9341 94.161 61.8713 94.161C56.8085 94.161 52.6548 90.0073 52.6548 84.9445V75.728H61.8713Z" fill="#FCC003"/>
<path d="M61.8718 71.0882C56.7933 71.0882 52.6553 66.9346 52.6553 61.8718C52.6553 56.809 56.809 52.6553 61.8718 52.6553H84.96C90.0385 52.6553 94.1765 56.809 94.1765 61.8718C94.1765 66.9346 90.0228 71.0882 84.96 71.0882H61.8718Z" fill="#FCC003"/>
</g>
<defs>
<clipPath id="clip0_2432_6128">
<rect width="87.7761" height="87.7761" fill="white" transform="translate(6.40039 6.40039)"/>
</clipPath>
</defs>
</svg>
